# xmcd
#
# Track frame offsets:
#	150
#	13721
#	30201
#	44549
#	58740
#	68434
#	87287
#	108684
#	130150
#	148533
#	164848
#	180836
#	200830
#	218922
#	230844
#	241229
#	256621
#	269462
#	285877
#	304347
#	320842
#
# Disc length: 4455 seconds
#
# Revision: 1
# Processed by: cddbd v1.4PL0 Copyright (c) Steve Scherf et al.
# Submitted via: audiograbber 1.80
#
DISCID=32116515
DTITLE=John Denver - Greatest Hits
DYEAR=1900
DGENRE=
TTITLE0=Annies Song
TTITLE1=Leaving On A Jet Plane
TTITLE2=Take Me Home Country Roads
TTITLE3=Thank God Im A Country Boy
TTITLE4=The Eagle and the Hawk
TTITLE5=Fly Away
TTITLE6=Rocky Mountain High
TTITLE7=Back Home Again
TTITLE8=Farewell Andromeda
TTITLE9=Calypso
TTITLE10=Im Sorry
TTITLE11=My Sweet Lady
TTITLE12=Looking For Space
TTITLE13=It Amazes Me
TTITLE14=Grandmas Feather Bed
TTITLE15=Freinds With you
TTITLE16=This Old Guitar
TTITLE17=Goodbye Again
TTITLE18=Like A Sad Song
TTITLE19=Autograph
TTITLE20=Perhaps Love
EXTD=
EXTT0=
EXTT1=
EXTT2=
EXTT3=
EXTT4=
EXTT5=
EXTT6=
EXTT7=
EXTT8=
EXTT9=
EXTT10=
EXTT11=
EXTT12=
EXTT13=
EXTT14=
EXTT15=
EXTT16=
EXTT17=
EXTT18=
EXTT19=
EXTT20=
PLAYORDER=
